<?xml version="1.0" encoding="utf-8"?>
<!-- Generator: Adobe Illustrator 23.0.1, SVG Export Plug-In . SVG Version: 6.00 Build 0)  -->
<svg version="1.1" id="レイヤー_1" xmlns="http://www.w3.org/2000/svg" xmlns:xlink="http://www.w3.org/1999/xlink" x="0px"
	 y="0px" viewBox="0 0 199.5 193.3" style="enable-background:new 0 0 199.5 193.3;" xml:space="preserve">
<style type="text/css">
	.st0{display:none;}
	.st1{fill:#FEC485;stroke:#404040;stroke-width:0.75;stroke-miterlimit:10;}
	.st2{fill:#FFC486;stroke:#404040;stroke-width:0.75;stroke-miterlimit:10;}
	.st3{fill:#FFC486;}
	.st4{fill:none;stroke:#404040;stroke-width:0.75;stroke-linecap:round;stroke-linejoin:round;stroke-miterlimit:10;}
	.st5{fill:#FE8694;stroke:#404040;stroke-width:0.75;stroke-linecap:round;stroke-linejoin:round;stroke-miterlimit:10;}
	.st6{fill:#404040;stroke:#404040;stroke-width:0.75;stroke-linecap:round;stroke-linejoin:round;stroke-miterlimit:10;}
	.st7{fill:#FFFFFF;}
	.st8{fill:#404040;stroke:#404040;stroke-width:0.5;stroke-linecap:round;stroke-linejoin:round;stroke-miterlimit:10;}
	.st9{fill:#FFC486;stroke:#404040;stroke-width:0.75;stroke-linecap:round;stroke-linejoin:round;stroke-miterlimit:10;}
	.st10{fill:#FEC485;stroke:#404040;stroke-width:0.75;stroke-linecap:round;stroke-linejoin:round;stroke-miterlimit:10;}
	.st11{fill:#FEC485;stroke:#404040;stroke-width:0.75;stroke-linecap:round;stroke-miterlimit:10;}
	.st12{fill:none;stroke:#404040;stroke-width:0.75;stroke-linecap:round;stroke-miterlimit:10;}
</style>
<g id="レイヤー_1_1_">
	<g class="st0">
	</g>
	<ellipse class="st1" cx="74.3" cy="30.4" rx="11.8" ry="26.6"/>
	<ellipse transform="matrix(0.508 -0.8614 0.8614 0.508 38.0024 127.7698)" class="st2" cx="130.8" cy="30.6" rx="26.3" ry="13.5"/>
	<ellipse class="st3" cx="99.4" cy="99.1" rx="57.2" ry="77.5"/>
	<path class="st4" d="M128.3,32.7c5.3-8.3,7.5-7.2,7.5-7.2"/>
	<line class="st4" x1="74.3" y1="24.4" x2="74.3" y2="32.7"/>
	<path class="st4" d="M107.9,55.9c0,0,5.3-3.9,9.6-2.2"/>
	<path class="st4" d="M91.4,57c0,0-1.6-4.4-11.2-4.4"/>
	<path class="st4" d="M106.3,68.1c3.7,1.1,8,0.6,11.2-4.4"/>
	<path class="st4" d="M79.1,62c0,0.6,4.8,7.8,12.8,6.6"/>
	<path class="st5" d="M106.9,72c0,5.5-3.2,10.5-7.5,10.5c-4.3,0-7.5-5-7.5-10.5c0-1.1,0-2.2,0.5-3.3c2.1-0.6,4.8-1.7,8-3.3
		c0,0,2.7,2.2,6.4,3.3C106.9,69.2,106.9,70.9,106.9,72z"/>
	<ellipse class="st6" cx="100.5" cy="63.1" rx="2.7" ry="2.2"/>
	<path class="st7" d="M118.6,103.6c0,7.2-8.6,13.3-18.7,13.3s-18.7-6.1-18.7-13.3c0-2.8,1.6-6.1,3.7-8.3c2.1,2.8,7.5,5,14.4,5
		c7,0,12.8-2.2,14.4-5.5C116.5,97.5,118.6,100.2,118.6,103.6z"/>
	<path class="st4" d="M95.1,26c-3.2-11.1-7.5-15-7.5-15"/>
	<path class="st4" d="M102.1,25.5c-0.5-2.8,1.1-16.1-2.7-17.2"/>
	<path class="st4" d="M110.1,27.1c5.9-11.1,11.8-10.5,11.8-10.5"/>
	<ellipse class="st4" cx="60.9" cy="80.3" rx="9.6" ry="13.3"/>
	<ellipse class="st6" cx="60.9" cy="85.3" rx="2.7" ry="2.8"/>
	<ellipse class="st8" cx="60.9" cy="72.5" rx="1.6" ry="1.7"/>
	<ellipse class="st8" cx="56.6" cy="76.4" rx="1.6" ry="1.7"/>
	<ellipse class="st8" cx="65.2" cy="76.4" rx="1.6" ry="1.7"/>
	<path class="st9" d="M151.3,80.8c0,0,14.4,11.1,12.8,13.8c-1.6,2.8-5.9,7.8-5.9,7.8s-1.1,1.7,0.5,3.9c1.6,2.8,4.3,4.4,3.2,6.6
		c-1.1,1.7-3.2,3.9-5.9,1.7c-1.6-1.7-2.1-7.8-2.7-10.5c0-1.1,0-1.7,0.5-2.2c1.1-1.7,2.7-6.1,2.7-6.6c-1.1-2.8-3.2-2.8-5.9-2.2
		c-2.1,0-7.5-2.2-7.5-2.2"/>
	<path class="st9" d="M68.9,163.9l0.5,10.5c0,0,0.5,3.3,2.1,5.5c1.6,2.2,3.7,5,2.7,5.5c-0.5,0.6-2.7,1.1-2.7,2.2
		c0,1.1,2.1,2.2,2.1,2.2s4.8,1.1,6.4-1.1c1.1-1.7,1.6-3.9,1.6-4.4c0-0.6-1.6-4.4-1.6-6.6s1.6-6.1,1.6-6.1"/>
	<path class="st10" d="M111.7,172.8c0.5,4.4,1.1,6.6,0,8.3c-1.1,1.7-1.6,2.2-1.1,3.9c0.5,1.7,2.7,3.9,4.3,3.9
		c1.6,0,9.1,0.6,10.2-2.2c1.1-2.8-1.1-3.9-2.1-3.9s-2.1,0.6-2.7,0.6c-0.5,0-2.1-1.1-1.1-3.3c1.1-2.2,3.2-4.4,3.2-4.4
		s3.7-6.1,3.7-7.8"/>
	<path class="st10" d="M139,48.2c0,0,5.3,2.8,11.8,2.8"/>
	<path class="st10" d="M143.2,55.9c0,0,6.4,7.2,9.6,7.2"/>
	<path class="st11" d="M148.1,71.4c0,0,4.3,6.1,11.8,8.3"/>
	<path class="st12" d="M150.7,114.6c0,0,0,15,6.4,18.8"/>
	<path class="st12" d="M147.5,129.6c0,0-4.3,15,4.3,19.4"/>
	<path class="st4" d="M144.3,144.5c0,0-4.8,18.3-16,18.8"/>
	<path class="st10" d="M128.8,159c0,0,1.1,5.5-7.5,11.6"/>
	<path class="st10" d="M98.3,171.1c0,0,7.5,7.8,10.7,8.3"/>
	<path class="st4" d="M83.3,166.2c0,0,6.4,12.7,16.6,13.3"/>
	<path class="st10" d="M65.2,154.5c0,0,2.1,11.6,7,15.5"/>
	<path class="st10" d="M48.6,117.4c0,0-2.1,10.5-5.3,15"/>
	<path class="st4" d="M46.4,104.1c0,0-1.1,10.5-4.8,16.1"/>
	<path class="st4" d="M54.5,144c2.7,11.1,12.3,19.9,12.3,19.9"/>
	<path class="st4" d="M48,127.4c0,1.1,0.5,17.2,6.4,24.4"/>
	<path class="st4" d="M45.9,85.3c0,0-5.9,12.2-5.9,24.9"/>
	<path class="st12" d="M61.4,45.4c0,0-7.5,6.6-12.3,6.6"/>
	<path class="st12" d="M54.5,58.1c-5.3,4.4-7.5,6.1-10.2,7.2"/>
	<path class="st12" d="M48,73.6c0,0-1.6,3.3-6.4,4.4"/>
	<line class="st12" x1="101" y1="146.2" x2="96.2" y2="150.1"/>
	<line class="st12" x1="96.2" y1="145.7" x2="101" y2="150.1"/>
</g>
<g id="レイヤー_2_1_">
</g>
</svg>
